<svg id="visual" viewBox="0 0 900 600" width="900" height="600" xmlns="http://www.w3.org/2000/svg" xmlns:xlink="http://www.w3.org/1999/xlink" version="1.1"><rect x="0" y="0" width="900" height="600" fill="#ffffff"></rect><path d="M0 151L21.5 156.8C43 162.7 86 174.3 128.8 189C171.7 203.7 214.3 221.3 257.2 219.8C300 218.3 343 197.7 385.8 190.7C428.7 183.7 471.3 190.3 514.2 188.3C557 186.3 600 175.7 642.8 175.7C685.7 175.7 728.3 186.3 771.2 184.5C814 182.7 857 168.3 878.5 161.2L900 154L900 0L878.5 0C857 0 814 0 771.2 0C728.3 0 685.7 0 642.8 0C600 0 557 0 514.2 0C471.3 0 428.7 0 385.8 0C343 0 300 0 257.2 0C214.3 0 171.7 0 128.8 0C86 0 43 0 21.5 0L0 0Z" fill="#312da5"></path><path d="M0 164L21.5 170.2C43 176.3 86 188.7 128.8 181.3C171.7 174 214.3 147 257.2 145.5C300 144 343 168 385.8 180C428.7 192 471.3 192 514.2 189.7C557 187.3 600 182.7 642.8 177C685.7 171.3 728.3 164.7 771.2 164.3C814 164 857 170 878.5 173L900 176L900 0L878.5 0C857 0 814 0 771.2 0C728.3 0 685.7 0 642.8 0C600 0 557 0 514.2 0C471.3 0 428.7 0 385.8 0C343 0 300 0 257.2 0C214.3 0 171.7 0 128.8 0C86 0 43 0 21.5 0L0 0Z" fill="#26218d"></path><path d="M0 119L21.5 115.8C43 112.7 86 106.3 128.8 111.5C171.7 116.7 214.3 133.3 257.2 135.2C300 137 343 124 385.8 114.3C428.7 104.7 471.3 98.3 514.2 100.5C557 102.7 600 113.3 642.8 112.8C685.7 112.3 728.3 100.7 771.2 94.7C814 88.7 857 88.3 878.5 88.2L900 88L900 0L878.5 0C857 0 814 0 771.2 0C728.3 0 685.7 0 642.8 0C600 0 557 0 514.2 0C471.3 0 428.7 0 385.8 0C343 0 300 0 257.2 0C214.3 0 171.7 0 128.8 0C86 0 43 0 21.5 0L0 0Z" fill="#1a1675"></path><path d="M0 56L21.5 58.2C43 60.3 86 64.7 128.8 72.7C171.7 80.7 214.3 92.3 257.2 96C300 99.7 343 95.3 385.8 92.7C428.7 90 471.3 89 514.2 87.7C557 86.3 600 84.7 642.8 84.5C685.7 84.3 728.3 85.7 771.2 84.3C814 83 857 79 878.5 77L900 75L900 0L878.5 0C857 0 814 0 771.2 0C728.3 0 685.7 0 642.8 0C600 0 557 0 514.2 0C471.3 0 428.7 0 385.8 0C343 0 300 0 257.2 0C214.3 0 171.7 0 128.8 0C86 0 43 0 21.5 0L0 0Z" fill="#0d0c5e"></path><path d="M0 63L21.5 56.7C43 50.3 86 37.7 128.8 31.8C171.7 26 214.3 27 257.2 34.2C300 41.3 343 54.7 385.8 58.2C428.7 61.7 471.3 55.3 514.2 53C557 50.7 600 52.3 642.8 51.3C685.7 50.3 728.3 46.7 771.2 42.2C814 37.7 857 32.3 878.5 29.7L900 27L900 0L878.5 0C857 0 814 0 771.2 0C728.3 0 685.7 0 642.8 0C600 0 557 0 514.2 0C471.3 0 428.7 0 385.8 0C343 0 300 0 257.2 0C214.3 0 171.7 0 128.8 0C86 0 43 0 21.5 0L0 0Z" fill="#040048"></path></svg>