<svg id="visual" viewBox="0 0 900 600" width="900" height="600" xmlns="http://www.w3.org/2000/svg" xmlns:xlink="http://www.w3.org/1999/xlink" version="1.1"><rect x="0" y="0" width="900" height="600" fill="#ffffff"></rect><path d="M0 447L21.5 441.2C43 435.3 86 423.7 128.8 409C171.7 394.3 214.3 376.7 257.2 378.2C300 379.7 343 400.3 385.8 407.3C428.7 414.3 471.3 407.7 514.2 409.7C557 411.7 600 422.3 642.8 422.3C685.7 422.3 728.3 411.7 771.2 413.5C814 415.3 857 429.7 878.5 436.8L900 444L900 601L878.5 601C857 601 814 601 771.2 601C728.3 601 685.7 601 642.8 601C600 601 557 601 514.2 601C471.3 601 428.7 601 385.8 601C343 601 300 601 257.2 601C214.3 601 171.7 601 128.8 601C86 601 43 601 21.5 601L0 601Z" fill="#312da5"></path><path d="M0 434L21.5 427.8C43 421.7 86 409.3 128.8 416.7C171.7 424 214.3 451 257.2 452.5C300 454 343 430 385.8 418C428.7 406 471.3 406 514.2 408.3C557 410.7 600 415.3 642.8 421C685.7 426.7 728.3 433.3 771.2 433.7C814 434 857 428 878.5 425L900 422L900 601L878.5 601C857 601 814 601 771.2 601C728.3 601 685.7 601 642.8 601C600 601 557 601 514.2 601C471.3 601 428.7 601 385.8 601C343 601 300 601 257.2 601C214.3 601 171.7 601 128.8 601C86 601 43 601 21.5 601L0 601Z" fill="#26218d"></path><path d="M0 479L21.5 482.2C43 485.3 86 491.7 128.8 486.5C171.7 481.3 214.3 464.7 257.2 462.8C300 461 343 474 385.8 483.7C428.7 493.3 471.3 499.7 514.2 497.5C557 495.3 600 484.7 642.8 485.2C685.7 485.7 728.3 497.3 771.2 503.3C814 509.3 857 509.7 878.5 509.8L900 510L900 601L878.5 601C857 601 814 601 771.2 601C728.3 601 685.7 601 642.8 601C600 601 557 601 514.2 601C471.3 601 428.7 601 385.8 601C343 601 300 601 257.2 601C214.3 601 171.7 601 128.8 601C86 601 43 601 21.5 601L0 601Z" fill="#1a1675"></path><path d="M0 542L21.5 539.8C43 537.7 86 533.3 128.8 525.3C171.7 517.3 214.3 505.7 257.2 502C300 498.3 343 502.7 385.8 505.3C428.7 508 471.3 509 514.2 510.3C557 511.7 600 513.3 642.8 513.5C685.7 513.7 728.3 512.3 771.2 513.7C814 515 857 519 878.5 521L900 523L900 601L878.5 601C857 601 814 601 771.2 601C728.3 601 685.7 601 642.8 601C600 601 557 601 514.2 601C471.3 601 428.7 601 385.8 601C343 601 300 601 257.2 601C214.3 601 171.7 601 128.8 601C86 601 43 601 21.5 601L0 601Z" fill="#0d0c5e"></path><path d="M0 535L21.5 541.3C43 547.7 86 560.3 128.8 566.2C171.7 572 214.3 571 257.2 563.8C300 556.7 343 543.3 385.8 539.8C428.7 536.3 471.3 542.7 514.2 545C557 547.3 600 545.7 642.8 546.7C685.7 547.7 728.3 551.3 771.2 555.8C814 560.3 857 565.7 878.5 568.3L900 571L900 601L878.5 601C857 601 814 601 771.2 601C728.3 601 685.7 601 642.8 601C600 601 557 601 514.2 601C471.3 601 428.7 601 385.8 601C343 601 300 601 257.2 601C214.3 601 171.7 601 128.8 601C86 601 43 601 21.5 601L0 601Z" fill="#040048"></path></svg>